<mxfile host="65bd71144e" modified="2021-01-25T11:16:18.944Z" agent="5.0 (Windows NT 10.0; Win64; x64) AppleWebKit/537.36 (KHTML, like Gecko) Code/1.52.1 Chrome/83.0.4103.122 Electron/9.3.5 Safari/537.36" etag="B5hbemxGbKxmDSFlJ2rP" version="13.10.0" type="embed">
    <diagram id="oKih8fkCALltj_94B4sA" name="layout">
        <mxGraphModel dx="1954" dy="1845" grid="1" gridSize="10" guides="1" tooltips="1" connect="1" arrows="1" fold="1" page="1" pageScale="1" pageWidth="827" pageHeight="1169" math="0" shadow="0">
            <root>
                <mxCell id="0"/>
                <mxCell id="1" parent="0"/>
                <mxCell id="AoPreRPP48XYumyPDFlC-1" value="启动块" style="rounded=0;whiteSpace=wrap;html=1;" parent="1" vertex="1">
                    <mxGeometry x="-708" y="-1130" width="75" height="90" as="geometry"/>
                </mxCell>
                <mxCell id="AoPreRPP48XYumyPDFlC-21" style="edgeStyle=orthogonalEdgeStyle;rounded=0;orthogonalLoop=1;jettySize=auto;html=1;exitX=1;exitY=1;exitDx=0;exitDy=0;entryX=1;entryY=0;entryDx=0;entryDy=0;" parent="1" source="AoPreRPP48XYumyPDFlC-6" target="AoPreRPP48XYumyPDFlC-20" edge="1">
                    <mxGeometry relative="1" as="geometry"/>
                </mxCell>
                <mxCell id="AoPreRPP48XYumyPDFlC-29" style="edgeStyle=orthogonalEdgeStyle;rounded=0;orthogonalLoop=1;jettySize=auto;html=1;exitX=0;exitY=1;exitDx=0;exitDy=0;entryX=0;entryY=0;entryDx=0;entryDy=0;" parent="1" source="AoPreRPP48XYumyPDFlC-6" target="AoPreRPP48XYumyPDFlC-13" edge="1">
                    <mxGeometry relative="1" as="geometry"/>
                </mxCell>
                <mxCell id="AoPreRPP48XYumyPDFlC-6" value="块组0" style="rounded=0;whiteSpace=wrap;html=1;" parent="1" vertex="1">
                    <mxGeometry x="-633" y="-1130" width="145" height="90" as="geometry"/>
                </mxCell>
                <mxCell id="AoPreRPP48XYumyPDFlC-7" value="块组1" style="rounded=0;whiteSpace=wrap;html=1;" parent="1" vertex="1">
                    <mxGeometry x="-488" y="-1130" width="110" height="90" as="geometry"/>
                </mxCell>
                <mxCell id="AoPreRPP48XYumyPDFlC-8" value="..." style="rounded=0;whiteSpace=wrap;html=1;" parent="1" vertex="1">
                    <mxGeometry x="-378" y="-1130" width="110" height="90" as="geometry"/>
                </mxCell>
                <mxCell id="AoPreRPP48XYumyPDFlC-9" value="块组n" style="rounded=0;whiteSpace=wrap;html=1;" parent="1" vertex="1">
                    <mxGeometry x="-268" y="-1130" width="150" height="90" as="geometry"/>
                </mxCell>
                <mxCell id="AoPreRPP48XYumyPDFlC-10" value="&lt;meta http-equiv=&quot;content-type&quot; content=&quot;text/html; charset=utf-8&quot; style=&quot;&quot;&gt;&lt;span style=&quot;font-family: Helvetica; font-size: 12px; font-style: normal; font-variant-ligatures: normal; font-variant-caps: normal; font-weight: 400; letter-spacing: normal; orphans: 2; text-align: center; text-indent: 0px; text-transform: none; widows: 2; word-spacing: 0px; -webkit-text-stroke-width: 0px; background-color: rgb(248, 249, 250); text-decoration-style: initial; text-decoration-color: initial; float: none; display: inline !important;&quot;&gt;1024字节&lt;/span&gt;" style="text;whiteSpace=wrap;html=1;" parent="1" vertex="1">
                    <mxGeometry x="-708" y="-1160" width="80" height="30" as="geometry"/>
                </mxCell>
                <mxCell id="AoPreRPP48XYumyPDFlC-13" value="超级块" style="rounded=0;whiteSpace=wrap;html=1;fillColor=#f8cecc;strokeColor=#b85450;" parent="1" vertex="1">
                    <mxGeometry x="-708" y="-940" width="80" height="60" as="geometry"/>
                </mxCell>
                <mxCell id="AoPreRPP48XYumyPDFlC-14" value="块组描述符" style="rounded=0;whiteSpace=wrap;html=1;fillColor=#e1d5e7;strokeColor=#9673a6;" parent="1" vertex="1">
                    <mxGeometry x="-628" y="-940" width="90" height="60" as="geometry"/>
                </mxCell>
                <mxCell id="AoPreRPP48XYumyPDFlC-15" value="保留GDT" style="rounded=0;whiteSpace=wrap;html=1;fillColor=#d5e8d4;strokeColor=#82b366;" parent="1" vertex="1">
                    <mxGeometry x="-538" y="-940" width="90" height="60" as="geometry"/>
                </mxCell>
                <mxCell id="AoPreRPP48XYumyPDFlC-17" value="块位图" style="rounded=0;whiteSpace=wrap;html=1;fillColor=#1ba1e2;strokeColor=#006EAF;fontColor=#ffffff;" parent="1" vertex="1">
                    <mxGeometry x="-448" y="-940" width="90" height="60" as="geometry"/>
                </mxCell>
                <mxCell id="AoPreRPP48XYumyPDFlC-18" value="inode位图" style="rounded=0;whiteSpace=wrap;html=1;fillColor=#60a917;strokeColor=#2D7600;fontColor=#ffffff;" parent="1" vertex="1">
                    <mxGeometry x="-358" y="-940" width="80" height="60" as="geometry"/>
                </mxCell>
                <mxCell id="AoPreRPP48XYumyPDFlC-19" value="inode表" style="rounded=0;whiteSpace=wrap;html=1;fillColor=#d80073;strokeColor=#A50040;fontColor=#ffffff;" parent="1" vertex="1">
                    <mxGeometry x="-278" y="-940" width="70" height="60" as="geometry"/>
                </mxCell>
                <mxCell id="AoPreRPP48XYumyPDFlC-20" value="数据块" style="rounded=0;whiteSpace=wrap;html=1;fillColor=#a20025;strokeColor=#6F0000;fontColor=#ffffff;" parent="1" vertex="1">
                    <mxGeometry x="-208" y="-940" width="90" height="60" as="geometry"/>
                </mxCell>
                <mxCell id="AoPreRPP48XYumyPDFlC-22" value="一个块" style="text;html=1;align=center;verticalAlign=middle;resizable=0;points=[];autosize=1;" parent="1" vertex="1">
                    <mxGeometry x="-695.5" y="-870" width="50" height="20" as="geometry"/>
                </mxCell>
                <mxCell id="AoPreRPP48XYumyPDFlC-23" value="若干（一般是2）" style="text;html=1;align=center;verticalAlign=middle;resizable=0;points=[];autosize=1;" parent="1" vertex="1">
                    <mxGeometry x="-638" y="-870" width="110" height="20" as="geometry"/>
                </mxCell>
                <mxCell id="AoPreRPP48XYumyPDFlC-24" value="若干" style="text;html=1;align=center;verticalAlign=middle;resizable=0;points=[];autosize=1;" parent="1" vertex="1">
                    <mxGeometry x="-513" y="-870" width="40" height="20" as="geometry"/>
                </mxCell>
                <mxCell id="AoPreRPP48XYumyPDFlC-25" value="一个块" style="text;html=1;align=center;verticalAlign=middle;resizable=0;points=[];autosize=1;" parent="1" vertex="1">
                    <mxGeometry x="-428" y="-870" width="50" height="20" as="geometry"/>
                </mxCell>
                <mxCell id="AoPreRPP48XYumyPDFlC-26" value="一个块" style="text;html=1;align=center;verticalAlign=middle;resizable=0;points=[];autosize=1;" parent="1" vertex="1">
                    <mxGeometry x="-343" y="-870" width="50" height="20" as="geometry"/>
                </mxCell>
                <mxCell id="AoPreRPP48XYumyPDFlC-27" value="n个块" style="text;html=1;align=center;verticalAlign=middle;resizable=0;points=[];autosize=1;" parent="1" vertex="1">
                    <mxGeometry x="-268" y="-870" width="50" height="20" as="geometry"/>
                </mxCell>
                <mxCell id="AoPreRPP48XYumyPDFlC-28" value="n个块" style="text;html=1;align=center;verticalAlign=middle;resizable=0;points=[];autosize=1;" parent="1" vertex="1">
                    <mxGeometry x="-188" y="-870" width="50" height="20" as="geometry"/>
                </mxCell>
                <mxCell id="AoPreRPP48XYumyPDFlC-30" value="EXT4-LAYOUT" style="text;html=1;align=center;verticalAlign=middle;resizable=0;points=[];autosize=1;fillColor=#33FF33;" parent="1" vertex="1">
                    <mxGeometry x="-820" y="-1130" width="100" height="20" as="geometry"/>
                </mxCell>
                <mxCell id="9" style="edgeStyle=orthogonalEdgeStyle;rounded=0;orthogonalLoop=1;jettySize=auto;html=1;entryX=0;entryY=0.5;entryDx=0;entryDy=0;" edge="1" parent="1" source="3" target="4">
                    <mxGeometry relative="1" as="geometry"/>
                </mxCell>
                <mxCell id="3" value="块组描述符" style="rounded=0;whiteSpace=wrap;html=1;fillColor=#e1d5e7;strokeColor=#9673a6;" vertex="1" parent="1">
                    <mxGeometry x="-708" y="-735" width="90" height="60" as="geometry"/>
                </mxCell>
                <mxCell id="4" value="块位图块号" style="rounded=1;whiteSpace=wrap;html=1;" vertex="1" parent="1">
                    <mxGeometry x="-528" y="-720" width="128" height="30" as="geometry"/>
                </mxCell>
                <mxCell id="5" value="inode位图块号" style="rounded=1;whiteSpace=wrap;html=1;" vertex="1" parent="1">
                    <mxGeometry x="-528" y="-690" width="128" height="30" as="geometry"/>
                </mxCell>
                <mxCell id="6" value="inode表起始块号" style="rounded=1;whiteSpace=wrap;html=1;" vertex="1" parent="1">
                    <mxGeometry x="-528" y="-660" width="128" height="30" as="geometry"/>
                </mxCell>
                <mxCell id="7" value="数据块起始块号" style="rounded=1;whiteSpace=wrap;html=1;" vertex="1" parent="1">
                    <mxGeometry x="-528" y="-630" width="128" height="30" as="geometry"/>
                </mxCell>
                <mxCell id="10" value="空闲块数" style="rounded=1;whiteSpace=wrap;html=1;" vertex="1" parent="1">
                    <mxGeometry x="-528" y="-600" width="128" height="30" as="geometry"/>
                </mxCell>
                <mxCell id="11" value="..." style="rounded=1;whiteSpace=wrap;html=1;" vertex="1" parent="1">
                    <mxGeometry x="-528" y="-570" width="128" height="30" as="geometry"/>
                </mxCell>
                <mxCell id="13" value="0：没有这样的inode" style="rounded=1;whiteSpace=wrap;html=1;" vertex="1" parent="1">
                    <mxGeometry x="-528" y="-460" width="278" height="30" as="geometry"/>
                </mxCell>
                <mxCell id="14" value="1：有缺陷的block列表" style="rounded=1;whiteSpace=wrap;html=1;" vertex="1" parent="1">
                    <mxGeometry x="-528" y="-430" width="278" height="30" as="geometry"/>
                </mxCell>
                <mxCell id="15" value="2：root目录" style="rounded=1;whiteSpace=wrap;html=1;" vertex="1" parent="1">
                    <mxGeometry x="-528" y="-400" width="278" height="30" as="geometry"/>
                </mxCell>
                <mxCell id="16" value="3、ACL INDEX" style="rounded=1;whiteSpace=wrap;html=1;" vertex="1" parent="1">
                    <mxGeometry x="-528" y="-370" width="278" height="30" as="geometry"/>
                </mxCell>
                <mxCell id="17" value="4、ACL DATA" style="rounded=1;whiteSpace=wrap;html=1;" vertex="1" parent="1">
                    <mxGeometry x="-528" y="-340" width="278" height="30" as="geometry"/>
                </mxCell>
                <mxCell id="18" value="5、BOOTLOADER" style="rounded=1;whiteSpace=wrap;html=1;" vertex="1" parent="1">
                    <mxGeometry x="-528" y="-310" width="278" height="30" as="geometry"/>
                </mxCell>
                <mxCell id="19" value="6、UNDELETE DIRECTOR" style="rounded=1;whiteSpace=wrap;html=1;" vertex="1" parent="1">
                    <mxGeometry x="-528" y="-280" width="278" height="30" as="geometry"/>
                </mxCell>
                <mxCell id="20" value="7、RESERVED GROUP INODE DESCRPTION" style="rounded=1;whiteSpace=wrap;html=1;" vertex="1" parent="1">
                    <mxGeometry x="-528" y="-250" width="278" height="30" as="geometry"/>
                </mxCell>
                <mxCell id="21" value="8、JOURNAL INODE" style="rounded=1;whiteSpace=wrap;html=1;" vertex="1" parent="1">
                    <mxGeometry x="-528" y="-220" width="278" height="30" as="geometry"/>
                </mxCell>
                <mxCell id="22" value="9、FIRST NON-RESERVED INODE , USUALLY THIS IS THE LOST+FOUND DIRECTOR" style="rounded=1;whiteSpace=wrap;html=1;" vertex="1" parent="1">
                    <mxGeometry x="-528" y="-190" width="278" height="30" as="geometry"/>
                </mxCell>
                <mxCell id="24" style="edgeStyle=orthogonalEdgeStyle;rounded=0;orthogonalLoop=1;jettySize=auto;html=1;entryX=0;entryY=0.5;entryDx=0;entryDy=0;" edge="1" parent="1" source="23" target="13">
                    <mxGeometry relative="1" as="geometry"/>
                </mxCell>
                <mxCell id="23" value="inode表" style="rounded=0;whiteSpace=wrap;html=1;fillColor=#d80073;strokeColor=#A50040;fontColor=#ffffff;" vertex="1" parent="1">
                    <mxGeometry x="-708" y="-475" width="70" height="60" as="geometry"/>
                </mxCell>
            </root>
        </mxGraphModel>
    </diagram>
</mxfile>